<mxfile host="65bd71144e">
    <diagram id="LekP73RvLUhrvDiLSqRw" name="Page-1">
        <mxGraphModel dx="1972" dy="578" grid="1" gridSize="10" guides="1" tooltips="1" connect="1" arrows="1" fold="1" page="1" pageScale="1" pageWidth="850" pageHeight="1100" math="0" shadow="0">
            <root>
                <mxCell id="0"/>
                <mxCell id="1" parent="0"/>
                <mxCell id="8" style="edgeStyle=none;html=1;dashed=1;jumpSize=19;" parent="1" source="2" target="7" edge="1">
                    <mxGeometry relative="1" as="geometry"/>
                </mxCell>
                <mxCell id="18" value="Usa" style="edgeLabel;html=1;align=center;verticalAlign=middle;resizable=0;points=[];" parent="8" vertex="1" connectable="0">
                    <mxGeometry x="-0.1998" y="-2" relative="1" as="geometry">
                        <mxPoint as="offset"/>
                    </mxGeometry>
                </mxCell>
                <object placeholders="1" c4Name="Autor" c4Type="Persona" c4Description="Se registra, sube trabajos, recibe notificaciones" label="&lt;font style=&quot;font-size: 16px&quot;&gt;&lt;b&gt;%c4Name%&lt;/b&gt;&lt;/font&gt;&lt;div&gt;[%c4Type%]&lt;/div&gt;&lt;br&gt;&lt;div&gt;&lt;font style=&quot;font-size: 11px&quot;&gt;&lt;font color=&quot;#cccccc&quot;&gt;%c4Description%&lt;/font&gt;&lt;/div&gt;" id="2">
                    <mxCell style="html=1;fontSize=11;dashed=0;whiteSpace=wrap;fillColor=#083F75;strokeColor=#06315C;fontColor=#ffffff;shape=mxgraph.c4.person2;align=center;metaEdit=1;points=[[0.5,0,0],[1,0.5,0],[1,0.75,0],[0.75,1,0],[0.5,1,0],[0.25,1,0],[0,0.75,0],[0,0.5,0]];resizable=0;" parent="1" vertex="1">
                        <mxGeometry x="-60" y="150" width="200" height="180" as="geometry"/>
                    </mxCell>
                </object>
                <mxCell id="9" style="edgeStyle=none;html=1;dashed=1;jumpSize=19;" parent="1" source="3" target="7" edge="1">
                    <mxGeometry relative="1" as="geometry"/>
                </mxCell>
                <object placeholders="1" c4Name="Revisor" c4Type="Persona" c4Description="Configura eventos, asigna revisores, consulta informes." label="&lt;font style=&quot;font-size: 16px&quot;&gt;&lt;b&gt;%c4Name%&lt;/b&gt;&lt;/font&gt;&lt;div&gt;[%c4Type%]&lt;/div&gt;&lt;br&gt;&lt;div&gt;&lt;font style=&quot;font-size: 11px&quot;&gt;&lt;font color=&quot;#cccccc&quot;&gt;%c4Description%&lt;/font&gt;&lt;/div&gt;" id="3">
                    <mxCell style="html=1;fontSize=11;dashed=0;whiteSpace=wrap;fillColor=#083F75;strokeColor=#06315C;fontColor=#ffffff;shape=mxgraph.c4.person2;align=center;metaEdit=1;points=[[0.5,0,0],[1,0.5,0],[1,0.75,0],[0.75,1,0],[0.5,1,0],[0.25,1,0],[0,0.75,0],[0,0.5,0]];resizable=0;" parent="1" vertex="1">
                        <mxGeometry x="160" y="150" width="200" height="180" as="geometry"/>
                    </mxCell>
                </object>
                <mxCell id="10" style="edgeStyle=none;html=1;dashed=1;jumpSize=19;jumpStyle=none;" parent="1" source="4" target="7" edge="1">
                    <mxGeometry relative="1" as="geometry"/>
                </mxCell>
                <object placeholders="1" c4Name="Organizador" c4Type="Persona" c4Description="Configura eventos, asigna revisores, consulta informes." label="&lt;font style=&quot;font-size: 16px&quot;&gt;&lt;b&gt;%c4Name%&lt;/b&gt;&lt;/font&gt;&lt;div&gt;[%c4Type%]&lt;/div&gt;&lt;br&gt;&lt;div&gt;&lt;font style=&quot;font-size: 11px&quot;&gt;&lt;font color=&quot;#cccccc&quot;&gt;%c4Description%&lt;/font&gt;&lt;/div&gt;" id="4">
                    <mxCell style="html=1;fontSize=11;dashed=0;whiteSpace=wrap;fillColor=#083F75;strokeColor=#06315C;fontColor=#ffffff;shape=mxgraph.c4.person2;align=center;metaEdit=1;points=[[0.5,0,0],[1,0.5,0],[1,0.75,0],[0.75,1,0],[0.5,1,0],[0.25,1,0],[0,0.75,0],[0,0.5,0]];resizable=0;" parent="1" vertex="1">
                        <mxGeometry x="370" y="160" width="200" height="180" as="geometry"/>
                    </mxCell>
                </object>
                <mxCell id="21" style="edgeStyle=orthogonalEdgeStyle;jumpStyle=arc;jumpSize=19;html=1;dashed=1;" parent="1" source="6" target="22" edge="1">
                    <mxGeometry relative="1" as="geometry">
                        <mxPoint x="-180" y="180" as="targetPoint"/>
                        <Array as="points">
                            <mxPoint x="630" y="110"/>
                            <mxPoint x="-190" y="110"/>
                        </Array>
                    </mxGeometry>
                </mxCell>
                <object placeholders="1" c4Name="Email Service" c4Type="Sistema de Software" c4Description="Servicio de email de google cloud" label="&lt;font style=&quot;font-size: 16px&quot;&gt;&lt;b&gt;%c4Name%&lt;/b&gt;&lt;/font&gt;&lt;div&gt;[%c4Type%]&lt;/div&gt;&lt;br&gt;&lt;div&gt;&lt;font style=&quot;font-size: 11px&quot;&gt;&lt;font color=&quot;#cccccc&quot;&gt;%c4Description%&lt;/font&gt;&lt;/div&gt;" id="6">
                    <mxCell style="rounded=1;whiteSpace=wrap;html=1;labelBackgroundColor=none;fillColor=#8C8496;fontColor=#ffffff;align=center;arcSize=10;strokeColor=#736782;metaEdit=1;resizable=0;points=[[0.25,0,0],[0.5,0,0],[0.75,0,0],[1,0.25,0],[1,0.5,0],[1,0.75,0],[0.75,1,0],[0.5,1,0],[0.25,1,0],[0,0.75,0],[0,0.5,0],[0,0.25,0]];" parent="1" vertex="1">
                        <mxGeometry x="510" y="520" width="240" height="120" as="geometry"/>
                    </mxCell>
                </object>
                <mxCell id="11" style="edgeStyle=none;html=1;dashed=1;jumpSize=19;" parent="1" source="7" target="6" edge="1">
                    <mxGeometry relative="1" as="geometry"/>
                </mxCell>
                <mxCell id="17" value="Envia Emails usando" style="edgeLabel;html=1;align=center;verticalAlign=middle;resizable=0;points=[];" parent="11" vertex="1" connectable="0">
                    <mxGeometry x="-0.1333" y="-2" relative="1" as="geometry">
                        <mxPoint x="15" y="-2" as="offset"/>
                    </mxGeometry>
                </mxCell>
                <object placeholders="1" c4Name="CuyChairDesktop Software" c4Type="Sistema de Software" c4Description="Sistema de gestion de eventos" label="&lt;font style=&quot;font-size: 16px&quot;&gt;&lt;b&gt;%c4Name%&lt;/b&gt;&lt;/font&gt;&lt;div&gt;[%c4Type%]&lt;/div&gt;&lt;br&gt;&lt;div&gt;&lt;font style=&quot;font-size: 11px&quot;&gt;&lt;font color=&quot;#cccccc&quot;&gt;%c4Description%&lt;/font&gt;&lt;/div&gt;" id="7">
                    <mxCell style="rounded=1;whiteSpace=wrap;html=1;labelBackgroundColor=none;fillColor=#1061B0;fontColor=#ffffff;align=center;arcSize=10;strokeColor=#0D5091;metaEdit=1;resizable=0;points=[[0.25,0,0],[0.5,0,0],[0.75,0,0],[1,0.25,0],[1,0.5,0],[1,0.75,0],[0.75,1,0],[0.5,1,0],[0.25,1,0],[0,0.75,0],[0,0.5,0],[0,0.25,0]];" parent="1" vertex="1">
                        <mxGeometry x="120" y="520" width="240" height="120" as="geometry"/>
                    </mxCell>
                </object>
                <mxCell id="12" style="edgeStyle=orthogonalEdgeStyle;html=1;dashed=1;jumpSize=19;" parent="1" source="6" target="4" edge="1">
                    <mxGeometry relative="1" as="geometry">
                        <mxPoint x="370" y="590" as="sourcePoint"/>
                        <mxPoint x="520" y="590" as="targetPoint"/>
                        <Array as="points">
                            <mxPoint x="630" y="440"/>
                            <mxPoint x="510" y="440"/>
                        </Array>
                    </mxGeometry>
                </mxCell>
                <mxCell id="13" style="edgeStyle=orthogonalEdgeStyle;html=1;dashed=1;jumpSize=19;" parent="1" source="6" target="3" edge="1">
                    <mxGeometry relative="1" as="geometry">
                        <mxPoint x="640" y="530" as="sourcePoint"/>
                        <mxPoint x="530" y="360" as="targetPoint"/>
                        <Array as="points">
                            <mxPoint x="630" y="130"/>
                            <mxPoint x="260" y="130"/>
                        </Array>
                    </mxGeometry>
                </mxCell>
                <mxCell id="15" style="edgeStyle=orthogonalEdgeStyle;html=1;dashed=1;jumpSize=19;" parent="1" source="6" target="2" edge="1">
                    <mxGeometry relative="1" as="geometry">
                        <mxPoint x="640" y="530" as="sourcePoint"/>
                        <mxPoint y="150" as="targetPoint"/>
                        <Array as="points">
                            <mxPoint x="630" y="110"/>
                            <mxPoint x="40" y="110"/>
                        </Array>
                    </mxGeometry>
                </mxCell>
                <mxCell id="16" value="Envia Emails a:" style="edgeLabel;html=1;align=center;verticalAlign=middle;resizable=0;points=[];" parent="15" vertex="1" connectable="0">
                    <mxGeometry x="-0.8792" y="-1" relative="1" as="geometry">
                        <mxPoint as="offset"/>
                    </mxGeometry>
                </mxCell>
                <mxCell id="19" value="Usa" style="edgeLabel;html=1;align=center;verticalAlign=middle;resizable=0;points=[];" parent="1" vertex="1" connectable="0">
                    <mxGeometry x="249.99507917785118" y="400.0042511870106" as="geometry"/>
                </mxCell>
                <mxCell id="20" value="Usa" style="edgeLabel;html=1;align=center;verticalAlign=middle;resizable=0;points=[];" parent="1" vertex="1" connectable="0">
                    <mxGeometry x="259.99507917785115" y="410.0042511870106" as="geometry">
                        <mxPoint x="83" y="20" as="offset"/>
                    </mxGeometry>
                </mxCell>
                <object placeholders="1" c4Name="Administrador" c4Type="Persona" c4Description="Tiene los mayores permisos de la aplicaciÃ³n" label="&lt;font style=&quot;font-size: 16px&quot;&gt;&lt;b&gt;%c4Name%&lt;/b&gt;&lt;/font&gt;&lt;div&gt;[%c4Type%]&lt;/div&gt;&lt;br&gt;&lt;div&gt;&lt;font style=&quot;font-size: 11px&quot;&gt;&lt;font color=&quot;#cccccc&quot;&gt;%c4Description%&lt;/font&gt;&lt;/div&gt;" id="22">
                    <mxCell style="html=1;fontSize=11;dashed=0;whiteSpace=wrap;fillColor=#083F75;strokeColor=#06315C;fontColor=#ffffff;shape=mxgraph.c4.person2;align=center;metaEdit=1;points=[[0.5,0,0],[1,0.5,0],[1,0.75,0],[0.75,1,0],[0.5,1,0],[0.25,1,0],[0,0.75,0],[0,0.5,0]];resizable=0;" parent="1" vertex="1">
                        <mxGeometry x="-290" y="180" width="200" height="180" as="geometry"/>
                    </mxCell>
                </object>
                <mxCell id="24" style="edgeStyle=none;html=1;dashed=1;jumpSize=19;" parent="1" source="22" target="7" edge="1">
                    <mxGeometry relative="1" as="geometry">
                        <mxPoint x="102.94117647058829" y="340" as="sourcePoint"/>
                        <mxPoint x="214.705882352941" y="530" as="targetPoint"/>
                    </mxGeometry>
                </mxCell>
                <mxCell id="25" value="Usa" style="edgeLabel;html=1;align=center;verticalAlign=middle;resizable=0;points=[];" parent="24" vertex="1" connectable="0">
                    <mxGeometry x="-0.1998" y="-2" relative="1" as="geometry">
                        <mxPoint as="offset"/>
                    </mxGeometry>
                </mxCell>
                <object placeholders="1" c4Name="[Contexto del Sistema] CuyChair" c4Type="ContainerScopeBoundary" c4Description="Diagrama de contexto para el desarrollo del sofware CuyChair" label="&lt;font style=&quot;font-size: 16px&quot;&gt;&lt;b&gt;&lt;div style=&quot;text-align: left&quot;&gt;%c4Name%&lt;/div&gt;&lt;/b&gt;&lt;/font&gt;&lt;div style=&quot;text-align: left&quot;&gt;%c4Description%&lt;/div&gt;" id="27">
                    <mxCell style="text;html=1;strokeColor=none;fillColor=none;align=left;verticalAlign=top;whiteSpace=wrap;rounded=0;metaEdit=1;allowArrows=0;resizable=1;rotatable=0;connectable=0;recursiveResize=0;expand=0;pointerEvents=0;points=[[0.25,0,0],[0.5,0,0],[0.75,0,0],[1,0.25,0],[1,0.5,0],[1,0.75,0],[0.75,1,0],[0.5,1,0],[0.25,1,0],[0,0.75,0],[0,0.5,0],[0,0.25,0]];" vertex="1" parent="1">
                        <mxGeometry x="-410" y="680" width="290" height="60" as="geometry"/>
                    </mxCell>
                </object>
            </root>
        </mxGraphModel>
    </diagram>
</mxfile>